<mxfile host="app.diagrams.net" modified="2023-04-27T02:18:32.801Z" agent="Mozilla/5.0 (Windows NT 10.0; Win64; x64) AppleWebKit/537.36 (KHTML, like Gecko) Chrome/112.0.0.0 Safari/537.36" etag="E-bZxZ9B_SeIZ5MrP0v6" version="21.2.3" type="onedrive">
  <diagram name="Page-1" id="HCdrvNL-GXVqj2tD4UYe">
    <mxGraphModel dx="501" dy="609" grid="1" gridSize="10" guides="1" tooltips="1" connect="1" arrows="1" fold="1" page="1" pageScale="1" pageWidth="1100" pageHeight="850" math="0" shadow="0">
      <root>
        <mxCell id="0" />
        <mxCell id="1" parent="0" />
        <mxCell id="Hvjd1tM8WR84NhfFRs1E-5" style="edgeStyle=orthogonalEdgeStyle;rounded=0;orthogonalLoop=1;jettySize=auto;html=1;exitX=0;exitY=0;exitDx=0;exitDy=0;" parent="1" source="Hvjd1tM8WR84NhfFRs1E-4" target="Hvjd1tM8WR84NhfFRs1E-6" edge="1">
          <mxGeometry relative="1" as="geometry">
            <mxPoint x="180" y="210" as="targetPoint" />
            <Array as="points">
              <mxPoint x="440" y="260" />
              <mxPoint x="180" y="260" />
            </Array>
          </mxGeometry>
        </mxCell>
        <mxCell id="Hvjd1tM8WR84NhfFRs1E-13" value="Click Add button" style="edgeLabel;html=1;align=center;verticalAlign=middle;resizable=0;points=[];" parent="Hvjd1tM8WR84NhfFRs1E-5" vertex="1" connectable="0">
          <mxGeometry x="0.1833" y="5" relative="1" as="geometry">
            <mxPoint as="offset" />
          </mxGeometry>
        </mxCell>
        <mxCell id="Hvjd1tM8WR84NhfFRs1E-7" style="edgeStyle=orthogonalEdgeStyle;rounded=0;orthogonalLoop=1;jettySize=auto;html=1;exitX=0.25;exitY=0;exitDx=0;exitDy=0;" parent="1" source="Hvjd1tM8WR84NhfFRs1E-4" target="Hvjd1tM8WR84NhfFRs1E-8" edge="1">
          <mxGeometry relative="1" as="geometry">
            <mxPoint x="390" y="190" as="targetPoint" />
          </mxGeometry>
        </mxCell>
        <mxCell id="Hvjd1tM8WR84NhfFRs1E-14" value="Click Remove button" style="edgeLabel;html=1;align=center;verticalAlign=middle;resizable=0;points=[];" parent="Hvjd1tM8WR84NhfFRs1E-7" vertex="1" connectable="0">
          <mxGeometry x="-0.2516" y="4" relative="1" as="geometry">
            <mxPoint x="1" as="offset" />
          </mxGeometry>
        </mxCell>
        <mxCell id="Hvjd1tM8WR84NhfFRs1E-9" style="edgeStyle=orthogonalEdgeStyle;rounded=0;orthogonalLoop=1;jettySize=auto;html=1;exitX=0.75;exitY=0;exitDx=0;exitDy=0;" parent="1" source="Hvjd1tM8WR84NhfFRs1E-4" target="Hvjd1tM8WR84NhfFRs1E-10" edge="1">
          <mxGeometry relative="1" as="geometry">
            <mxPoint x="650" y="210" as="targetPoint" />
            <Array as="points">
              <mxPoint x="650" y="250" />
              <mxPoint x="650" y="220" />
              <mxPoint x="675" y="220" />
            </Array>
          </mxGeometry>
        </mxCell>
        <mxCell id="Hvjd1tM8WR84NhfFRs1E-15" value="Click Cart button" style="edgeLabel;html=1;align=center;verticalAlign=middle;resizable=0;points=[];" parent="Hvjd1tM8WR84NhfFRs1E-9" vertex="1" connectable="0">
          <mxGeometry x="0.4374" y="-2" relative="1" as="geometry">
            <mxPoint x="1" as="offset" />
          </mxGeometry>
        </mxCell>
        <mxCell id="Hvjd1tM8WR84NhfFRs1E-11" style="edgeStyle=orthogonalEdgeStyle;rounded=0;orthogonalLoop=1;jettySize=auto;html=1;exitX=1;exitY=0;exitDx=0;exitDy=0;" parent="1" source="Hvjd1tM8WR84NhfFRs1E-4" target="Hvjd1tM8WR84NhfFRs1E-12" edge="1">
          <mxGeometry relative="1" as="geometry">
            <mxPoint x="810" y="310" as="targetPoint" />
            <Array as="points">
              <mxPoint x="660" y="290" />
            </Array>
          </mxGeometry>
        </mxCell>
        <mxCell id="Hvjd1tM8WR84NhfFRs1E-16" value="Click Expire button" style="edgeLabel;html=1;align=center;verticalAlign=middle;resizable=0;points=[];" parent="Hvjd1tM8WR84NhfFRs1E-11" vertex="1" connectable="0">
          <mxGeometry x="0.1675" y="-5" relative="1" as="geometry">
            <mxPoint as="offset" />
          </mxGeometry>
        </mxCell>
        <mxCell id="Hvjd1tM8WR84NhfFRs1E-17" style="edgeStyle=orthogonalEdgeStyle;rounded=0;orthogonalLoop=1;jettySize=auto;html=1;exitX=0;exitY=0.75;exitDx=0;exitDy=0;" parent="1" edge="1">
          <mxGeometry relative="1" as="geometry">
            <mxPoint x="210.00000000000023" y="720" as="targetPoint" />
            <mxPoint x="480" y="547.5" as="sourcePoint" />
            <Array as="points">
              <mxPoint x="480" y="630" />
              <mxPoint x="210" y="630" />
            </Array>
          </mxGeometry>
        </mxCell>
        <mxCell id="Hvjd1tM8WR84NhfFRs1E-19" value="Click Waste Tracker" style="edgeLabel;html=1;align=center;verticalAlign=middle;resizable=0;points=[];" parent="Hvjd1tM8WR84NhfFRs1E-17" vertex="1" connectable="0">
          <mxGeometry x="-0.5446" y="-6" relative="1" as="geometry">
            <mxPoint x="-102" y="6" as="offset" />
          </mxGeometry>
        </mxCell>
        <mxCell id="Hvjd1tM8WR84NhfFRs1E-21" style="edgeStyle=orthogonalEdgeStyle;rounded=0;orthogonalLoop=1;jettySize=auto;html=1;exitX=1;exitY=0.75;exitDx=0;exitDy=0;" parent="1" source="Hvjd1tM8WR84NhfFRs1E-4" target="Hvjd1tM8WR84NhfFRs1E-23" edge="1">
          <mxGeometry relative="1" as="geometry">
            <mxPoint x="790" y="520" as="targetPoint" />
          </mxGeometry>
        </mxCell>
        <mxCell id="Hvjd1tM8WR84NhfFRs1E-22" value="Click Shopping List" style="edgeLabel;html=1;align=center;verticalAlign=middle;resizable=0;points=[];" parent="Hvjd1tM8WR84NhfFRs1E-21" vertex="1" connectable="0">
          <mxGeometry x="-0.0011" y="-1" relative="1" as="geometry">
            <mxPoint as="offset" />
          </mxGeometry>
        </mxCell>
        <mxCell id="_3oX5gugITDFDEBaIKNf-1" style="edgeStyle=orthogonalEdgeStyle;rounded=0;orthogonalLoop=1;jettySize=auto;html=1;exitX=0;exitY=0.75;exitDx=0;exitDy=0;entryX=1;entryY=0.25;entryDx=0;entryDy=0;" parent="1" source="Hvjd1tM8WR84NhfFRs1E-4" target="_3oX5gugITDFDEBaIKNf-3" edge="1">
          <mxGeometry relative="1" as="geometry">
            <mxPoint x="290" y="487.3913043478261" as="targetPoint" />
            <Array as="points">
              <mxPoint x="440" y="510" />
              <mxPoint x="250" y="510" />
              <mxPoint x="250" y="507" />
            </Array>
          </mxGeometry>
        </mxCell>
        <mxCell id="_3oX5gugITDFDEBaIKNf-6" value="Time Triggered" style="edgeLabel;html=1;align=center;verticalAlign=middle;resizable=0;points=[];" parent="_3oX5gugITDFDEBaIKNf-1" connectable="0" vertex="1">
          <mxGeometry x="0.4145" y="-3" relative="1" as="geometry">
            <mxPoint as="offset" />
          </mxGeometry>
        </mxCell>
        <mxCell id="Hvjd1tM8WR84NhfFRs1E-4" value="&amp;lt;&amp;lt;window&amp;gt;&amp;gt;&lt;br style=&quot;border-color: var(--border-color);&quot;&gt;Main Screen with food log&lt;br style=&quot;border-color: var(--border-color);&quot;&gt;&lt;br&gt;&amp;lt;&amp;lt;dropdown menu&amp;gt;&amp;gt;&lt;br&gt;Filter by location&lt;br&gt;&amp;lt;&amp;lt;dropdown menu&amp;gt;&amp;gt;&lt;br&gt;Filter by expiration date&lt;br&gt;&lt;br style=&quot;border-color: var(--border-color);&quot;&gt;&amp;lt;&amp;lt;button&amp;gt;&amp;gt;&lt;br style=&quot;border-color: var(--border-color);&quot;&gt;Add&lt;br style=&quot;border-color: var(--border-color);&quot;&gt;&amp;lt;&amp;lt;buttom&amp;gt;&amp;gt;&lt;br style=&quot;border-color: var(--border-color);&quot;&gt;Remove&lt;br style=&quot;border-color: var(--border-color);&quot;&gt;&amp;lt;&amp;lt;button&amp;gt;&amp;gt;&lt;br style=&quot;border-color: var(--border-color);&quot;&gt;Cart&lt;br style=&quot;border-color: var(--border-color);&quot;&gt;&amp;lt;&amp;lt;button&amp;gt;&amp;gt;&lt;br style=&quot;border-color: var(--border-color);&quot;&gt;Expire&lt;br style=&quot;border-color: var(--border-color);&quot;&gt;&lt;br style=&quot;border-color: var(--border-color);&quot;&gt;&amp;lt;&amp;lt;button&amp;gt;&amp;gt;&lt;br style=&quot;border-color: var(--border-color);&quot;&gt;Home&lt;br style=&quot;border-color: var(--border-color);&quot;&gt;&amp;lt;&amp;lt;button&amp;gt;&amp;gt;&lt;br style=&quot;border-color: var(--border-color);&quot;&gt;Waste Tracker&lt;br style=&quot;border-color: var(--border-color);&quot;&gt;&amp;lt;&amp;lt;button&amp;gt;&amp;gt;&lt;br style=&quot;border-color: var(--border-color);&quot;&gt;Shopping List" style="rounded=0;whiteSpace=wrap;html=1;" parent="1" vertex="1">
          <mxGeometry x="440" y="210" width="220" height="370" as="geometry" />
        </mxCell>
        <mxCell id="_3oX5gugITDFDEBaIKNf-5" style="edgeStyle=orthogonalEdgeStyle;rounded=0;orthogonalLoop=1;jettySize=auto;html=1;exitX=0.75;exitY=1;exitDx=0;exitDy=0;endArrow=none;endFill=0;" parent="1" source="Hvjd1tM8WR84NhfFRs1E-6" edge="1">
          <mxGeometry relative="1" as="geometry">
            <mxPoint x="320" y="510" as="targetPoint" />
          </mxGeometry>
        </mxCell>
        <mxCell id="Hvjd1tM8WR84NhfFRs1E-6" value="&amp;lt;&amp;lt;Form&amp;gt;&amp;gt;&lt;br&gt;Enter a new food item&lt;br&gt;&lt;br&gt;&amp;lt;&amp;lt;text box&amp;gt;&amp;gt;&lt;br&gt;productName&lt;br&gt;&amp;lt;&amp;lt;button&amp;gt;&amp;gt;&lt;br&gt;foodType&lt;br&gt;&amp;lt;&amp;lt;button&amp;gt;&amp;gt;&lt;br&gt;setExpirationDate&lt;br&gt;&amp;lt;&amp;lt;button&amp;gt;&amp;gt;&lt;br&gt;setLocation&lt;br&gt;&amp;lt;&amp;lt;button&amp;gt;&amp;gt;&lt;br&gt;setNotification&lt;br&gt;confirmAdd" style="rounded=0;whiteSpace=wrap;html=1;" parent="1" vertex="1">
          <mxGeometry x="70" y="140" width="150" height="230" as="geometry" />
        </mxCell>
        <mxCell id="Hvjd1tM8WR84NhfFRs1E-8" value="&lt;span style=&quot;color: rgb(0, 0, 0); font-family: Helvetica; font-size: 12px; font-style: normal; font-variant-ligatures: normal; font-variant-caps: normal; font-weight: 400; letter-spacing: normal; orphans: 2; text-align: center; text-indent: 0px; text-transform: none; widows: 2; word-spacing: 0px; -webkit-text-stroke-width: 0px; background-color: rgb(251, 251, 251); text-decoration-thickness: initial; text-decoration-style: initial; text-decoration-color: initial; float: none; display: inline !important;&quot;&gt;&amp;lt;&amp;lt;Form&amp;gt;&amp;gt;&lt;/span&gt;&lt;br style=&quot;border-color: var(--border-color); color: rgb(0, 0, 0); font-family: Helvetica; font-size: 12px; font-style: normal; font-variant-ligatures: normal; font-variant-caps: normal; font-weight: 400; letter-spacing: normal; orphans: 2; text-align: center; text-indent: 0px; text-transform: none; widows: 2; word-spacing: 0px; -webkit-text-stroke-width: 0px; background-color: rgb(251, 251, 251); text-decoration-thickness: initial; text-decoration-style: initial; text-decoration-color: initial;&quot;&gt;Remove existing food&lt;br style=&quot;border-color: var(--border-color); color: rgb(0, 0, 0); font-family: Helvetica; font-size: 12px; font-style: normal; font-variant-ligatures: normal; font-variant-caps: normal; font-weight: 400; letter-spacing: normal; orphans: 2; text-align: center; text-indent: 0px; text-transform: none; widows: 2; word-spacing: 0px; -webkit-text-stroke-width: 0px; background-color: rgb(251, 251, 251); text-decoration-thickness: initial; text-decoration-style: initial; text-decoration-color: initial;&quot;&gt;&lt;br style=&quot;border-color: var(--border-color); color: rgb(0, 0, 0); font-family: Helvetica; font-size: 12px; font-style: normal; font-variant-ligatures: normal; font-variant-caps: normal; font-weight: 400; letter-spacing: normal; orphans: 2; text-align: center; text-indent: 0px; text-transform: none; widows: 2; word-spacing: 0px; -webkit-text-stroke-width: 0px; background-color: rgb(251, 251, 251); text-decoration-thickness: initial; text-decoration-style: initial; text-decoration-color: initial;&quot;&gt;&lt;span style=&quot;color: rgb(0, 0, 0); font-family: Helvetica; font-size: 12px; font-style: normal; font-variant-ligatures: normal; font-variant-caps: normal; font-weight: 400; letter-spacing: normal; orphans: 2; text-align: center; text-indent: 0px; text-transform: none; widows: 2; word-spacing: 0px; -webkit-text-stroke-width: 0px; background-color: rgb(251, 251, 251); text-decoration-thickness: initial; text-decoration-style: initial; text-decoration-color: initial; float: none; display: inline !important;&quot;&gt;&amp;lt;&amp;lt;button&amp;gt;&amp;gt;&lt;/span&gt;&lt;br style=&quot;border-color: var(--border-color); color: rgb(0, 0, 0); font-family: Helvetica; font-size: 12px; font-style: normal; font-variant-ligatures: normal; font-variant-caps: normal; font-weight: 400; letter-spacing: normal; orphans: 2; text-align: center; text-indent: 0px; text-transform: none; widows: 2; word-spacing: 0px; -webkit-text-stroke-width: 0px; background-color: rgb(251, 251, 251); text-decoration-thickness: initial; text-decoration-style: initial; text-decoration-color: initial;&quot;&gt;&lt;span style=&quot;color: rgb(0, 0, 0); font-family: Helvetica; font-size: 12px; font-style: normal; font-variant-ligatures: normal; font-variant-caps: normal; font-weight: 400; letter-spacing: normal; orphans: 2; text-align: center; text-indent: 0px; text-transform: none; widows: 2; word-spacing: 0px; -webkit-text-stroke-width: 0px; background-color: rgb(251, 251, 251); text-decoration-thickness: initial; text-decoration-style: initial; text-decoration-color: initial; float: none; display: inline !important;&quot;&gt;confirmRemove&lt;br&gt;&amp;lt;&amp;lt;button&amp;gt;&amp;gt;&lt;br&gt;cancelRequest&lt;br&gt;&lt;/span&gt;" style="rounded=0;whiteSpace=wrap;html=1;" parent="1" vertex="1">
          <mxGeometry x="320" y="40" width="120" height="120" as="geometry" />
        </mxCell>
        <mxCell id="Hvjd1tM8WR84NhfFRs1E-10" value="&amp;lt;&amp;lt;Form&amp;gt;&amp;gt;&lt;br&gt;Add items to shopping list&lt;br&gt;&lt;br&gt;&amp;lt;&amp;lt;button&amp;gt;&amp;gt;&lt;br&gt;confirmItems&lt;br&gt;&amp;lt;&amp;lt;button&amp;gt;&amp;gt;&lt;br style=&quot;border-color: var(--border-color);&quot;&gt;cancelRequest" style="rounded=0;whiteSpace=wrap;html=1;" parent="1" vertex="1">
          <mxGeometry x="720" y="30" width="170" height="140" as="geometry" />
        </mxCell>
        <mxCell id="Hvjd1tM8WR84NhfFRs1E-12" value="&amp;lt;&amp;lt;Form&amp;gt;&amp;gt;&lt;br&gt;Remove items from log and flag as wasted&lt;br&gt;&lt;br&gt;&amp;lt;&amp;lt;button&amp;gt;&amp;gt;&lt;br&gt;confirmWaste&lt;br&gt;&amp;lt;&amp;lt;button&amp;gt;&amp;gt;&lt;br style=&quot;border-color: var(--border-color);&quot;&gt;cancelRequest" style="rounded=0;whiteSpace=wrap;html=1;" parent="1" vertex="1">
          <mxGeometry x="840" y="190" width="170" height="150" as="geometry" />
        </mxCell>
        <mxCell id="Hvjd1tM8WR84NhfFRs1E-18" value="&amp;lt;&amp;lt;window&amp;gt;&amp;gt;&lt;br&gt;&lt;br&gt;wasted food data" style="rounded=0;whiteSpace=wrap;html=1;" parent="1" vertex="1">
          <mxGeometry x="120" y="720" width="120" height="60" as="geometry" />
        </mxCell>
        <mxCell id="Hvjd1tM8WR84NhfFRs1E-28" style="edgeStyle=orthogonalEdgeStyle;rounded=0;orthogonalLoop=1;jettySize=auto;html=1;exitX=0.75;exitY=1;exitDx=0;exitDy=0;" parent="1" source="Hvjd1tM8WR84NhfFRs1E-23" target="Hvjd1tM8WR84NhfFRs1E-29" edge="1">
          <mxGeometry relative="1" as="geometry">
            <mxPoint x="919.8571428571431" y="720" as="targetPoint" />
          </mxGeometry>
        </mxCell>
        <mxCell id="_3oX5gugITDFDEBaIKNf-7" value="Click add button" style="edgeLabel;html=1;align=center;verticalAlign=middle;resizable=0;points=[];" parent="Hvjd1tM8WR84NhfFRs1E-28" connectable="0" vertex="1">
          <mxGeometry x="0.2705" y="2" relative="1" as="geometry">
            <mxPoint as="offset" />
          </mxGeometry>
        </mxCell>
        <mxCell id="Hvjd1tM8WR84NhfFRs1E-23" value="&amp;lt;&amp;lt;Form&amp;gt;&amp;gt;&lt;br&gt;checklist of items&lt;br&gt;&amp;lt;&amp;lt;button&amp;gt;&amp;gt;&lt;br&gt;addItem" style="rounded=0;whiteSpace=wrap;html=1;" parent="1" vertex="1">
          <mxGeometry x="830" y="520" width="120" height="90" as="geometry" />
        </mxCell>
        <mxCell id="Hvjd1tM8WR84NhfFRs1E-29" value="&amp;lt;&amp;lt;Form&amp;gt;&amp;gt;&lt;br&gt;Enter product&lt;br&gt;&lt;br&gt;&amp;lt;&amp;lt;button&amp;gt;&amp;gt;&lt;br&gt;addProduct&lt;br&gt;&amp;lt;&amp;lt;button&amp;gt;&amp;gt;&lt;br style=&quot;border-color: var(--border-color);&quot;&gt;cancelRequest" style="rounded=0;whiteSpace=wrap;html=1;" parent="1" vertex="1">
          <mxGeometry x="840" y="700" width="139.86" height="140" as="geometry" />
        </mxCell>
        <mxCell id="_3oX5gugITDFDEBaIKNf-3" value="&amp;lt;&amp;lt;report&amp;gt;&amp;gt;&lt;br&gt;Food has expired and added to waste list&lt;br&gt;&amp;lt;&amp;lt;report&amp;gt;&amp;gt;&lt;br&gt;Notification to user on soon to expire foods" style="rounded=0;whiteSpace=wrap;html=1;" parent="1" vertex="1">
          <mxGeometry x="30" y="480" width="160" height="110" as="geometry" />
        </mxCell>
      </root>
    </mxGraphModel>
  </diagram>
</mxfile>
